<?xml version="1.0" encoding="UTF-8" standalone="no"?>
<!DOCTYPE svg PUBLIC "-//W3C//DTD SVG 1.1//EN"
 "http://www.w3.org/Graphics/SVG/1.1/DTD/svg11.dtd">
<!-- Generated by graphviz version 2.40.1 (0)
 -->
<!-- Title: %3 Pages: 1 -->
<svg width="3567pt" height="476pt"
 viewBox="0.00 0.00 3567.00 476.00" xmlns="http://www.w3.org/2000/svg" xmlns:xlink="http://www.w3.org/1999/xlink">
<g id="graph0" class="graph" transform="scale(1 1) rotate(0) translate(4 472)">
<title>%3</title>
<polygon fill="#ffffff" stroke="transparent" points="-4,4 -4,-472 3563,-472 3563,4 -4,4"/>
<!-- [root] azurerm_network_security_group.nic_ubuntu (expand) -->
<g id="node1" class="node">
<title>[root] azurerm_network_security_group.nic_ubuntu (expand)</title>
<polygon fill="none" stroke="#000000" points="2489,-324 2225,-324 2225,-288 2489,-288 2489,-324"/>
<text text-anchor="middle" x="2357" y="-302.3" font-family="Times,serif" font-size="14.00" fill="#000000">azurerm_network_security_group.nic_ubuntu</text>
</g>
<!-- [root] azurerm_resource_group.nsgs (expand) -->
<g id="node11" class="node">
<title>[root] azurerm_resource_group.nsgs (expand)</title>
<polygon fill="none" stroke="#000000" points="1605.5,-108 1426.5,-108 1426.5,-72 1605.5,-72 1605.5,-108"/>
<text text-anchor="middle" x="1516" y="-86.3" font-family="Times,serif" font-size="14.00" fill="#000000">azurerm_resource_group.nsgs</text>
</g>
<!-- [root] azurerm_network_security_group.nic_ubuntu (expand)&#45;&gt;[root] azurerm_resource_group.nsgs (expand) -->
<g id="edge1" class="edge">
<title>[root] azurerm_network_security_group.nic_ubuntu (expand)&#45;&gt;[root] azurerm_resource_group.nsgs (expand)</title>
<path fill="none" stroke="#000000" d="M2286.7433,-287.9555C2131.5876,-248.1057 1760.4803,-152.7916 1596.3827,-110.6453"/>
<polygon fill="#000000" stroke="#000000" points="1596.908,-107.1666 1586.3516,-108.0689 1595.1666,-113.9466 1596.908,-107.1666"/>
</g>
<!-- [root] azurerm_network_security_group.nic_windows (expand) -->
<g id="node2" class="node">
<title>[root] azurerm_network_security_group.nic_windows (expand)</title>
<polygon fill="none" stroke="#000000" points="2819,-324 2545,-324 2545,-288 2819,-288 2819,-324"/>
<text text-anchor="middle" x="2682" y="-302.3" font-family="Times,serif" font-size="14.00" fill="#000000">azurerm_network_security_group.nic_windows</text>
</g>
<!-- [root] azurerm_network_security_group.nic_windows (expand)&#45;&gt;[root] azurerm_resource_group.nsgs (expand) -->
<g id="edge2" class="edge">
<title>[root] azurerm_network_security_group.nic_windows (expand)&#45;&gt;[root] azurerm_resource_group.nsgs (expand)</title>
<path fill="none" stroke="#000000" d="M2585.6735,-287.9913C2425.0964,-257.9915 2092.5236,-195.9472 1811,-144 1746.0341,-132.0124 1672.9995,-118.6425 1615.8533,-108.2053"/>
<polygon fill="#000000" stroke="#000000" points="1616.203,-104.7114 1605.7369,-106.358 1614.9455,-111.5975 1616.203,-104.7114"/>
</g>
<!-- [root] azurerm_network_security_group.resource_group_default (expand) -->
<g id="node3" class="node">
<title>[root] azurerm_network_security_group.resource_group_default (expand)</title>
<polygon fill="none" stroke="#000000" points="1682,-252 1350,-252 1350,-216 1682,-216 1682,-252"/>
<text text-anchor="middle" x="1516" y="-230.3" font-family="Times,serif" font-size="14.00" fill="#000000">azurerm_network_security_group.resource_group_default</text>
</g>
<!-- [root] azurerm_network_security_group.resource_group_default (expand)&#45;&gt;[root] azurerm_resource_group.nsgs (expand) -->
<g id="edge3" class="edge">
<title>[root] azurerm_network_security_group.resource_group_default (expand)&#45;&gt;[root] azurerm_resource_group.nsgs (expand)</title>
<path fill="none" stroke="#000000" d="M1516,-215.7623C1516,-191.201 1516,-147.2474 1516,-118.3541"/>
<polygon fill="#000000" stroke="#000000" points="1519.5001,-118.0896 1516,-108.0896 1512.5001,-118.0897 1519.5001,-118.0896"/>
</g>
<!-- [root] azurerm_network_security_rule.AllowHTTP (expand) -->
<g id="node4" class="node">
<title>[root] azurerm_network_security_rule.AllowHTTP (expand)</title>
<polygon fill="none" stroke="#000000" points="2207,-324 1947,-324 1947,-288 2207,-288 2207,-324"/>
<text text-anchor="middle" x="2077" y="-302.3" font-family="Times,serif" font-size="14.00" fill="#000000">azurerm_network_security_rule.AllowHTTP</text>
</g>
<!-- [root] azurerm_network_security_rule.AllowHTTP (expand)&#45;&gt;[root] azurerm_network_security_group.resource_group_default (expand) -->
<g id="edge4" class="edge">
<title>[root] azurerm_network_security_rule.AllowHTTP (expand)&#45;&gt;[root] azurerm_network_security_group.resource_group_default (expand)</title>
<path fill="none" stroke="#000000" d="M1946.96,-289.2792C1943.6059,-288.8484 1940.2813,-288.4214 1937,-288 1847.4586,-276.5012 1747.2028,-263.6412 1666.9938,-253.3562"/>
<polygon fill="#000000" stroke="#000000" points="1667.1786,-249.8513 1656.8146,-252.051 1666.2882,-256.7945 1667.1786,-249.8513"/>
</g>
<!-- [root] azurerm_network_security_rule.AllowHTTPS (expand) -->
<g id="node5" class="node">
<title>[root] azurerm_network_security_rule.AllowHTTPS (expand)</title>
<polygon fill="none" stroke="#000000" points="1084.5,-324 817.5,-324 817.5,-288 1084.5,-288 1084.5,-324"/>
<text text-anchor="middle" x="951" y="-302.3" font-family="Times,serif" font-size="14.00" fill="#000000">azurerm_network_security_rule.AllowHTTPS</text>
</g>
<!-- [root] azurerm_network_security_rule.AllowHTTPS (expand)&#45;&gt;[root] azurerm_network_security_group.resource_group_default (expand) -->
<g id="edge5" class="edge">
<title>[root] azurerm_network_security_rule.AllowHTTPS (expand)&#45;&gt;[root] azurerm_network_security_group.resource_group_default (expand)</title>
<path fill="none" stroke="#000000" d="M1084.5392,-288.9826C1168.5819,-278.2727 1277.2605,-264.4234 1364.5179,-253.3039"/>
<polygon fill="#000000" stroke="#000000" points="1365.0311,-256.7669 1374.5084,-252.0308 1364.1462,-249.8231 1365.0311,-256.7669"/>
</g>
<!-- [root] azurerm_network_security_rule.AllowRDP (expand) -->
<g id="node6" class="node">
<title>[root] azurerm_network_security_rule.AllowRDP (expand)</title>
<polygon fill="none" stroke="#000000" points="1355,-324 1103,-324 1103,-288 1355,-288 1355,-324"/>
<text text-anchor="middle" x="1229" y="-302.3" font-family="Times,serif" font-size="14.00" fill="#000000">azurerm_network_security_rule.AllowRDP</text>
</g>
<!-- [root] azurerm_network_security_rule.AllowRDP (expand)&#45;&gt;[root] azurerm_network_security_group.resource_group_default (expand) -->
<g id="edge6" class="edge">
<title>[root] azurerm_network_security_rule.AllowRDP (expand)&#45;&gt;[root] azurerm_network_security_group.resource_group_default (expand)</title>
<path fill="none" stroke="#000000" d="M1301.0518,-287.9243C1341.4804,-277.7819 1392.0672,-265.0912 1434.008,-254.5694"/>
<polygon fill="#000000" stroke="#000000" points="1435.0708,-257.9113 1443.9186,-252.0831 1433.3675,-251.1217 1435.0708,-257.9113"/>
</g>
<!-- [root] azurerm_network_security_rule.AllowSQLServer (expand) -->
<g id="node7" class="node">
<title>[root] azurerm_network_security_rule.AllowSQLServer (expand)</title>
<polygon fill="none" stroke="#000000" points="1659,-324 1373,-324 1373,-288 1659,-288 1659,-324"/>
<text text-anchor="middle" x="1516" y="-302.3" font-family="Times,serif" font-size="14.00" fill="#000000">azurerm_network_security_rule.AllowSQLServer</text>
</g>
<!-- [root] azurerm_network_security_rule.AllowSQLServer (expand)&#45;&gt;[root] azurerm_network_security_group.resource_group_default (expand) -->
<g id="edge7" class="edge">
<title>[root] azurerm_network_security_rule.AllowSQLServer (expand)&#45;&gt;[root] azurerm_network_security_group.resource_group_default (expand)</title>
<path fill="none" stroke="#000000" d="M1516,-287.8314C1516,-280.131 1516,-270.9743 1516,-262.4166"/>
<polygon fill="#000000" stroke="#000000" points="1519.5001,-262.4132 1516,-252.4133 1512.5001,-262.4133 1519.5001,-262.4132"/>
</g>
<!-- [root] azurerm_network_security_rule.AllowSSH (expand) -->
<g id="node8" class="node">
<title>[root] azurerm_network_security_rule.AllowSSH (expand)</title>
<polygon fill="none" stroke="#000000" points="1928.5,-324 1677.5,-324 1677.5,-288 1928.5,-288 1928.5,-324"/>
<text text-anchor="middle" x="1803" y="-302.3" font-family="Times,serif" font-size="14.00" fill="#000000">azurerm_network_security_rule.AllowSSH</text>
</g>
<!-- [root] azurerm_network_security_rule.AllowSSH (expand)&#45;&gt;[root] azurerm_network_security_group.resource_group_default (expand) -->
<g id="edge8" class="edge">
<title>[root] azurerm_network_security_rule.AllowSSH (expand)&#45;&gt;[root] azurerm_network_security_group.resource_group_default (expand)</title>
<path fill="none" stroke="#000000" d="M1730.9482,-287.9243C1690.5196,-277.7819 1639.9328,-265.0912 1597.992,-254.5694"/>
<polygon fill="#000000" stroke="#000000" points="1598.6325,-251.1217 1588.0814,-252.0831 1596.9292,-257.9113 1598.6325,-251.1217"/>
</g>
<!-- [root] azurerm_public_ip.vpnGatewayPublicIp (expand) -->
<g id="node9" class="node">
<title>[root] azurerm_public_ip.vpnGatewayPublicIp (expand)</title>
<polygon fill="none" stroke="#000000" points="692.5,-180 457.5,-180 457.5,-144 692.5,-144 692.5,-180"/>
<text text-anchor="middle" x="575" y="-158.3" font-family="Times,serif" font-size="14.00" fill="#000000">azurerm_public_ip.vpnGatewayPublicIp</text>
</g>
<!-- [root] azurerm_resource_group.core (expand) -->
<g id="node10" class="node">
<title>[root] azurerm_resource_group.core (expand)</title>
<polygon fill="none" stroke="#000000" points="866.5,-108 687.5,-108 687.5,-72 866.5,-72 866.5,-108"/>
<text text-anchor="middle" x="777" y="-86.3" font-family="Times,serif" font-size="14.00" fill="#000000">azurerm_resource_group.core</text>
</g>
<!-- [root] azurerm_public_ip.vpnGatewayPublicIp (expand)&#45;&gt;[root] azurerm_resource_group.core (expand) -->
<g id="edge9" class="edge">
<title>[root] azurerm_public_ip.vpnGatewayPublicIp (expand)&#45;&gt;[root] azurerm_resource_group.core (expand)</title>
<path fill="none" stroke="#000000" d="M625.7124,-143.9243C653.327,-134.0815 687.675,-121.8386 716.6601,-111.5073"/>
<polygon fill="#000000" stroke="#000000" points="718.0223,-114.7375 726.2667,-108.0831 715.6721,-108.1438 718.0223,-114.7375"/>
</g>
<!-- [root] provider[&quot;registry.terraform.io/hashicorp/azurerm&quot;] -->
<g id="node19" class="node">
<title>[root] provider[&quot;registry.terraform.io/hashicorp/azurerm&quot;]</title>
<polygon fill="none" stroke="#000000" points="1516,-36 1242.1822,-18 1516,0 1789.8178,-18 1516,-36"/>
<text text-anchor="middle" x="1516" y="-14.3" font-family="Times,serif" font-size="14.00" fill="#000000">provider[&quot;registry.terraform.io/hashicorp/azurerm&quot;]</text>
</g>
<!-- [root] azurerm_resource_group.core (expand)&#45;&gt;[root] provider[&quot;registry.terraform.io/hashicorp/azurerm&quot;] -->
<g id="edge11" class="edge">
<title>[root] azurerm_resource_group.core (expand)&#45;&gt;[root] provider[&quot;registry.terraform.io/hashicorp/azurerm&quot;]</title>
<path fill="none" stroke="#000000" d="M866.5086,-81.2793C998.9229,-68.3783 1247.2888,-44.1803 1395.5559,-29.7347"/>
<polygon fill="#000000" stroke="#000000" points="1396.0016,-33.208 1405.615,-28.7547 1395.3227,-26.241 1396.0016,-33.208"/>
</g>
<!-- [root] var.loc -->
<g id="node20" class="node">
<title>[root] var.loc</title>
<polygon fill="none" stroke="#000000" points="1143,-36 1095,-36 1095,0 1149,0 1149,-30 1143,-36"/>
<polyline fill="none" stroke="#000000" points="1143,-36 1143,-30 "/>
<polyline fill="none" stroke="#000000" points="1149,-30 1143,-30 "/>
<text text-anchor="middle" x="1122" y="-14.3" font-family="Times,serif" font-size="14.00" fill="#000000">var.loc</text>
</g>
<!-- [root] azurerm_resource_group.core (expand)&#45;&gt;[root] var.loc -->
<g id="edge12" class="edge">
<title>[root] azurerm_resource_group.core (expand)&#45;&gt;[root] var.loc</title>
<path fill="none" stroke="#000000" d="M863.6128,-71.9243C934.9077,-57.0453 1032.4819,-36.682 1084.9704,-25.7279"/>
<polygon fill="#000000" stroke="#000000" points="1085.7717,-29.1362 1094.8458,-23.667 1084.3416,-22.2838 1085.7717,-29.1362"/>
</g>
<!-- [root] local.default_name (expand) -->
<g id="node23" class="node">
<title>[root] local.default_name (expand)</title>
<ellipse fill="none" stroke="#000000" cx="793" cy="-18" rx="133.7763" ry="18"/>
<text text-anchor="middle" x="793" y="-14.3" font-family="Times,serif" font-size="14.00" fill="#000000">[root] local.default_name (expand)</text>
</g>
<!-- [root] azurerm_resource_group.core (expand)&#45;&gt;[root] local.default_name (expand) -->
<g id="edge10" class="edge">
<title>[root] azurerm_resource_group.core (expand)&#45;&gt;[root] local.default_name (expand)</title>
<path fill="none" stroke="#000000" d="M781.0375,-71.8314C782.7487,-64.131 784.7835,-54.9743 786.6852,-46.4166"/>
<polygon fill="#000000" stroke="#000000" points="790.1554,-46.9344 788.9082,-36.4133 783.3221,-45.4159 790.1554,-46.9344"/>
</g>
<!-- [root] azurerm_resource_group.nsgs (expand)&#45;&gt;[root] provider[&quot;registry.terraform.io/hashicorp/azurerm&quot;] -->
<g id="edge14" class="edge">
<title>[root] azurerm_resource_group.nsgs (expand)&#45;&gt;[root] provider[&quot;registry.terraform.io/hashicorp/azurerm&quot;]</title>
<path fill="none" stroke="#000000" d="M1516,-71.8314C1516,-64.131 1516,-54.9743 1516,-46.4166"/>
<polygon fill="#000000" stroke="#000000" points="1519.5001,-46.4132 1516,-36.4133 1512.5001,-46.4133 1519.5001,-46.4132"/>
</g>
<!-- [root] azurerm_resource_group.nsgs (expand)&#45;&gt;[root] var.loc -->
<g id="edge15" class="edge">
<title>[root] azurerm_resource_group.nsgs (expand)&#45;&gt;[root] var.loc</title>
<path fill="none" stroke="#000000" d="M1426.1023,-73.572C1341.7256,-58.1529 1219.6876,-35.8515 1159.0665,-24.7736"/>
<polygon fill="#000000" stroke="#000000" points="1159.6477,-21.3219 1149.1814,-22.9672 1158.3893,-28.2079 1159.6477,-21.3219"/>
</g>
<!-- [root] azurerm_resource_group.nsgs (expand)&#45;&gt;[root] local.default_name (expand) -->
<g id="edge13" class="edge">
<title>[root] azurerm_resource_group.nsgs (expand)&#45;&gt;[root] local.default_name (expand)</title>
<path fill="none" stroke="#000000" d="M1426.2574,-81.063C1296.2592,-68.1171 1055.3719,-44.1283 911.0925,-29.7602"/>
<polygon fill="#000000" stroke="#000000" points="911.1718,-26.2509 900.8742,-28.7427 910.4781,-33.2165 911.1718,-26.2509"/>
</g>
<!-- [root] azurerm_storage_account.storage (expand) -->
<g id="node12" class="node">
<title>[root] azurerm_storage_account.storage (expand)</title>
<polygon fill="none" stroke="#000000" points="799.5,-324 602.5,-324 602.5,-288 799.5,-288 799.5,-324"/>
<text text-anchor="middle" x="701" y="-302.3" font-family="Times,serif" font-size="14.00" fill="#000000">azurerm_storage_account.storage</text>
</g>
<!-- [root] azurerm_storage_account.storage (expand)&#45;&gt;[root] azurerm_resource_group.core (expand) -->
<g id="edge16" class="edge">
<title>[root] azurerm_storage_account.storage (expand)&#45;&gt;[root] azurerm_resource_group.core (expand)</title>
<path fill="none" stroke="#000000" d="M707.349,-287.9555C720.621,-250.235 751.3786,-162.8188 767.2045,-117.8399"/>
<polygon fill="#000000" stroke="#000000" points="770.5981,-118.7399 770.6156,-108.1451 763.9949,-116.4165 770.5981,-118.7399"/>
</g>
<!-- [root] azurerm_subnet.GatewaySubnet (expand) -->
<g id="node13" class="node">
<title>[root] azurerm_subnet.GatewaySubnet (expand)</title>
<polygon fill="none" stroke="#000000" points="521.5,-252 330.5,-252 330.5,-216 521.5,-216 521.5,-252"/>
<text text-anchor="middle" x="426" y="-230.3" font-family="Times,serif" font-size="14.00" fill="#000000">azurerm_subnet.GatewaySubnet</text>
</g>
<!-- [root] azurerm_virtual_network.core (expand) -->
<g id="node16" class="node">
<title>[root] azurerm_virtual_network.core (expand)</title>
<polygon fill="none" stroke="#000000" points="428.5,-180 247.5,-180 247.5,-144 428.5,-144 428.5,-180"/>
<text text-anchor="middle" x="338" y="-158.3" font-family="Times,serif" font-size="14.00" fill="#000000">azurerm_virtual_network.core</text>
</g>
<!-- [root] azurerm_subnet.GatewaySubnet (expand)&#45;&gt;[root] azurerm_virtual_network.core (expand) -->
<g id="edge17" class="edge">
<title>[root] azurerm_subnet.GatewaySubnet (expand)&#45;&gt;[root] azurerm_virtual_network.core (expand)</title>
<path fill="none" stroke="#000000" d="M403.7939,-215.8314C392.955,-206.9632 379.7556,-196.1637 368.0322,-186.5718"/>
<polygon fill="#000000" stroke="#000000" points="370.155,-183.7864 360.199,-180.1628 365.7223,-189.2041 370.155,-183.7864"/>
</g>
<!-- [root] azurerm_subnet.dev (expand) -->
<g id="node14" class="node">
<title>[root] azurerm_subnet.dev (expand)</title>
<polygon fill="none" stroke="#000000" points="126,-324 0,-324 0,-288 126,-288 126,-324"/>
<text text-anchor="middle" x="63" y="-302.3" font-family="Times,serif" font-size="14.00" fill="#000000">azurerm_subnet.dev</text>
</g>
<!-- [root] azurerm_subnet.dev (expand)&#45;&gt;[root] azurerm_virtual_network.core (expand) -->
<g id="edge18" class="edge">
<title>[root] azurerm_subnet.dev (expand)&#45;&gt;[root] azurerm_virtual_network.core (expand)</title>
<path fill="none" stroke="#000000" d="M97.5505,-287.9081C147.461,-261.7732 239.716,-213.4651 294.2958,-184.8851"/>
<polygon fill="#000000" stroke="#000000" points="296.1392,-187.8707 303.3745,-180.1311 292.892,-181.6694 296.1392,-187.8707"/>
</g>
<!-- [root] azurerm_subnet.training (expand) -->
<g id="node15" class="node">
<title>[root] azurerm_subnet.training (expand)</title>
<polygon fill="none" stroke="#000000" points="293.5,-324 144.5,-324 144.5,-288 293.5,-288 293.5,-324"/>
<text text-anchor="middle" x="219" y="-302.3" font-family="Times,serif" font-size="14.00" fill="#000000">azurerm_subnet.training</text>
</g>
<!-- [root] azurerm_subnet.training (expand)&#45;&gt;[root] azurerm_virtual_network.core (expand) -->
<g id="edge19" class="edge">
<title>[root] azurerm_subnet.training (expand)&#45;&gt;[root] azurerm_virtual_network.core (expand)</title>
<path fill="none" stroke="#000000" d="M234.0714,-287.7623C254.9051,-262.5518 292.6227,-216.9103 316.4353,-188.0952"/>
<polygon fill="#000000" stroke="#000000" points="319.3787,-190.0277 323.0509,-180.0896 313.9827,-185.5685 319.3787,-190.0277"/>
</g>
<!-- [root] azurerm_virtual_network.core (expand)&#45;&gt;[root] azurerm_resource_group.core (expand) -->
<g id="edge20" class="edge">
<title>[root] azurerm_virtual_network.core (expand)&#45;&gt;[root] azurerm_resource_group.core (expand)</title>
<path fill="none" stroke="#000000" d="M428.6948,-147.1252C501.1404,-135.2435 602.5538,-118.6108 677.2756,-106.3557"/>
<polygon fill="#000000" stroke="#000000" points="677.872,-109.8047 687.1737,-104.7323 676.7391,-102.897 677.872,-109.8047"/>
</g>
<!-- [root] azurerm_virtual_network_gateway.vpnGateway (expand) -->
<g id="node17" class="node">
<title>[root] azurerm_virtual_network_gateway.vpnGateway (expand)</title>
<polygon fill="none" stroke="#000000" points="584,-324 312,-324 312,-288 584,-288 584,-324"/>
<text text-anchor="middle" x="448" y="-302.3" font-family="Times,serif" font-size="14.00" fill="#000000">azurerm_virtual_network_gateway.vpnGateway</text>
</g>
<!-- [root] azurerm_virtual_network_gateway.vpnGateway (expand)&#45;&gt;[root] azurerm_public_ip.vpnGatewayPublicIp (expand) -->
<g id="edge21" class="edge">
<title>[root] azurerm_virtual_network_gateway.vpnGateway (expand)&#45;&gt;[root] azurerm_public_ip.vpnGatewayPublicIp (expand)</title>
<path fill="none" stroke="#000000" d="M484.2033,-287.7589C499.7364,-278.6133 517.2118,-266.404 530,-252 546.1233,-233.8395 558.0054,-208.8631 565.498,-189.8284"/>
<polygon fill="#000000" stroke="#000000" points="568.8691,-190.8074 569.1116,-180.2153 562.3167,-188.3443 568.8691,-190.8074"/>
</g>
<!-- [root] azurerm_virtual_network_gateway.vpnGateway (expand)&#45;&gt;[root] azurerm_subnet.GatewaySubnet (expand) -->
<g id="edge22" class="edge">
<title>[root] azurerm_virtual_network_gateway.vpnGateway (expand)&#45;&gt;[root] azurerm_subnet.GatewaySubnet (expand)</title>
<path fill="none" stroke="#000000" d="M442.4485,-287.8314C440.0697,-280.0463 437.2362,-270.7729 434.5967,-262.1347"/>
<polygon fill="#000000" stroke="#000000" points="437.8958,-260.954 431.6263,-252.4133 431.2013,-262.9996 437.8958,-260.954"/>
</g>
<!-- [root] data.azurerm_client_config.current (expand) -->
<g id="node18" class="node">
<title>[root] data.azurerm_client_config.current (expand)</title>
<polygon fill="none" stroke="#000000" points="2842,-252 2636,-252 2636,-216 2842,-216 2842,-252"/>
<text text-anchor="middle" x="2739" y="-230.3" font-family="Times,serif" font-size="14.00" fill="#000000">data.azurerm_client_config.current</text>
</g>
<!-- [root] data.azurerm_client_config.current (expand)&#45;&gt;[root] provider[&quot;registry.terraform.io/hashicorp/azurerm&quot;] -->
<g id="edge23" class="edge">
<title>[root] data.azurerm_client_config.current (expand)&#45;&gt;[root] provider[&quot;registry.terraform.io/hashicorp/azurerm&quot;]</title>
<path fill="none" stroke="#000000" d="M2636.8313,-215.9555C2400.3274,-174.1854 1818.7856,-71.4764 1600.5611,-32.9347"/>
<polygon fill="#000000" stroke="#000000" points="1600.9032,-29.4411 1590.4469,-31.1484 1599.6857,-36.3344 1600.9032,-29.4411"/>
</g>
<!-- [root] var.object_id -->
<g id="node21" class="node">
<title>[root] var.object_id</title>
<polygon fill="none" stroke="#000000" points="3449,-324 3369,-324 3369,-288 3455,-288 3455,-318 3449,-324"/>
<polyline fill="none" stroke="#000000" points="3449,-324 3449,-318 "/>
<polyline fill="none" stroke="#000000" points="3455,-318 3449,-318 "/>
<text text-anchor="middle" x="3412" y="-302.3" font-family="Times,serif" font-size="14.00" fill="#000000">var.object_id</text>
</g>
<!-- [root] var.tenant_id -->
<g id="node22" class="node">
<title>[root] var.tenant_id</title>
<polygon fill="none" stroke="#000000" points="3553,-324 3473,-324 3473,-288 3559,-288 3559,-318 3553,-324"/>
<polyline fill="none" stroke="#000000" points="3553,-324 3553,-318 "/>
<polyline fill="none" stroke="#000000" points="3559,-318 3553,-318 "/>
<text text-anchor="middle" x="3516" y="-302.3" font-family="Times,serif" font-size="14.00" fill="#000000">var.tenant_id</text>
</g>
<!-- [root] meta.count&#45;boundary (EachMode fixup) -->
<g id="node24" class="node">
<title>[root] meta.count&#45;boundary (EachMode fixup)</title>
<ellipse fill="none" stroke="#000000" cx="1803" cy="-378" rx="176.2688" ry="18"/>
<text text-anchor="middle" x="1803" y="-374.3" font-family="Times,serif" font-size="14.00" fill="#000000">[root] meta.count&#45;boundary (EachMode fixup)</text>
</g>
<!-- [root] meta.count&#45;boundary (EachMode fixup)&#45;&gt;[root] azurerm_network_security_group.nic_ubuntu (expand) -->
<g id="edge24" class="edge">
<title>[root] meta.count&#45;boundary (EachMode fixup)&#45;&gt;[root] azurerm_network_security_group.nic_ubuntu (expand)</title>
<path fill="none" stroke="#000000" d="M1912.1219,-363.8181C1998.7272,-352.5625 2120.4857,-336.7383 2214.7339,-324.4895"/>
<polygon fill="#000000" stroke="#000000" points="2215.4583,-327.9248 2224.9238,-323.1651 2214.5561,-320.9832 2215.4583,-327.9248"/>
</g>
<!-- [root] meta.count&#45;boundary (EachMode fixup)&#45;&gt;[root] azurerm_network_security_group.nic_windows (expand) -->
<g id="edge25" class="edge">
<title>[root] meta.count&#45;boundary (EachMode fixup)&#45;&gt;[root] azurerm_network_security_group.nic_windows (expand)</title>
<path fill="none" stroke="#000000" d="M1954.4486,-368.7417C2101.8195,-359.2665 2332.0009,-343.2317 2531,-324 2532.2934,-323.875 2533.5929,-323.7482 2534.8977,-323.6196"/>
<polygon fill="#000000" stroke="#000000" points="2535.3963,-327.0872 2544.9949,-322.6019 2534.6943,-320.1224 2535.3963,-327.0872"/>
</g>
<!-- [root] meta.count&#45;boundary (EachMode fixup)&#45;&gt;[root] azurerm_network_security_rule.AllowHTTP (expand) -->
<g id="edge26" class="edge">
<title>[root] meta.count&#45;boundary (EachMode fixup)&#45;&gt;[root] azurerm_network_security_rule.AllowHTTP (expand)</title>
<path fill="none" stroke="#000000" d="M1866.895,-361.2101C1906.1297,-350.9002 1956.6771,-337.6177 1998.3599,-326.6645"/>
<polygon fill="#000000" stroke="#000000" points="1999.4215,-330.0045 2008.2036,-324.0779 1997.6424,-323.2343 1999.4215,-330.0045"/>
</g>
<!-- [root] meta.count&#45;boundary (EachMode fixup)&#45;&gt;[root] azurerm_network_security_rule.AllowHTTPS (expand) -->
<g id="edge27" class="edge">
<title>[root] meta.count&#45;boundary (EachMode fixup)&#45;&gt;[root] azurerm_network_security_rule.AllowHTTPS (expand)</title>
<path fill="none" stroke="#000000" d="M1677.6555,-365.3186C1657.7086,-363.4406 1637.2955,-361.6012 1618,-360 1388.656,-340.9684 1328.0489,-346.4241 1094.723,-324.0362"/>
<polygon fill="#000000" stroke="#000000" points="1094.8513,-320.5323 1084.5609,-323.0541 1094.1778,-327.4999 1094.8513,-320.5323"/>
</g>
<!-- [root] meta.count&#45;boundary (EachMode fixup)&#45;&gt;[root] azurerm_network_security_rule.AllowRDP (expand) -->
<g id="edge28" class="edge">
<title>[root] meta.count&#45;boundary (EachMode fixup)&#45;&gt;[root] azurerm_network_security_rule.AllowRDP (expand)</title>
<path fill="none" stroke="#000000" d="M1688.8028,-364.2753C1602.6868,-353.8497 1481.3538,-338.9999 1365.2466,-324.1536"/>
<polygon fill="#000000" stroke="#000000" points="1365.4724,-320.654 1355.1088,-322.8556 1364.5833,-327.5974 1365.4724,-320.654"/>
</g>
<!-- [root] meta.count&#45;boundary (EachMode fixup)&#45;&gt;[root] azurerm_network_security_rule.AllowSQLServer (expand) -->
<g id="edge29" class="edge">
<title>[root] meta.count&#45;boundary (EachMode fixup)&#45;&gt;[root] azurerm_network_security_rule.AllowSQLServer (expand)</title>
<path fill="none" stroke="#000000" d="M1736.4351,-361.3008C1695.1,-350.931 1641.6734,-337.5278 1597.7707,-326.5139"/>
<polygon fill="#000000" stroke="#000000" points="1598.5335,-323.0969 1587.9824,-324.0583 1596.8301,-329.8865 1598.5335,-323.0969"/>
</g>
<!-- [root] meta.count&#45;boundary (EachMode fixup)&#45;&gt;[root] azurerm_network_security_rule.AllowSSH (expand) -->
<g id="edge30" class="edge">
<title>[root] meta.count&#45;boundary (EachMode fixup)&#45;&gt;[root] azurerm_network_security_rule.AllowSSH (expand)</title>
<path fill="none" stroke="#000000" d="M1803,-359.8314C1803,-352.131 1803,-342.9743 1803,-334.4166"/>
<polygon fill="#000000" stroke="#000000" points="1806.5001,-334.4132 1803,-324.4133 1799.5001,-334.4133 1806.5001,-334.4132"/>
</g>
<!-- [root] meta.count&#45;boundary (EachMode fixup)&#45;&gt;[root] azurerm_storage_account.storage (expand) -->
<g id="edge31" class="edge">
<title>[root] meta.count&#45;boundary (EachMode fixup)&#45;&gt;[root] azurerm_storage_account.storage (expand)</title>
<path fill="none" stroke="#000000" d="M1679.6805,-365.091C1659.0988,-363.198 1637.9572,-361.4134 1618,-360 1261.8797,-334.779 1168.084,-361.457 809.8899,-324.1306"/>
<polygon fill="#000000" stroke="#000000" points="810.0686,-320.6302 799.7573,-323.0651 809.3364,-327.5918 810.0686,-320.6302"/>
</g>
<!-- [root] meta.count&#45;boundary (EachMode fixup)&#45;&gt;[root] azurerm_subnet.dev (expand) -->
<g id="edge32" class="edge">
<title>[root] meta.count&#45;boundary (EachMode fixup)&#45;&gt;[root] azurerm_subnet.dev (expand)</title>
<path fill="none" stroke="#000000" d="M1681.6935,-364.9243C1660.4845,-363.0021 1638.6147,-361.2514 1618,-360 1292.1664,-340.2201 477.7802,-367.6988 136.0348,-323.9179"/>
<polygon fill="#000000" stroke="#000000" points="136.4349,-320.4405 126.0628,-322.6017 135.5188,-327.3803 136.4349,-320.4405"/>
</g>
<!-- [root] meta.count&#45;boundary (EachMode fixup)&#45;&gt;[root] azurerm_subnet.training (expand) -->
<g id="edge33" class="edge">
<title>[root] meta.count&#45;boundary (EachMode fixup)&#45;&gt;[root] azurerm_subnet.training (expand)</title>
<path fill="none" stroke="#000000" d="M1681.193,-364.933C1660.1399,-363.0225 1638.4517,-361.2733 1618,-360 1037.8856,-323.8815 885.2964,-392.73 303.8611,-323.9453"/>
<polygon fill="#000000" stroke="#000000" points="303.8794,-320.4228 293.5355,-322.7147 303.0509,-327.3736 303.8794,-320.4228"/>
</g>
<!-- [root] meta.count&#45;boundary (EachMode fixup)&#45;&gt;[root] azurerm_virtual_network_gateway.vpnGateway (expand) -->
<g id="edge34" class="edge">
<title>[root] meta.count&#45;boundary (EachMode fixup)&#45;&gt;[root] azurerm_virtual_network_gateway.vpnGateway (expand)</title>
<path fill="none" stroke="#000000" d="M1680.687,-365.0218C1659.7909,-363.1133 1638.2856,-361.3418 1618,-360 1166.4889,-330.1344 1049.1175,-359.6739 594.313,-324.0608"/>
<polygon fill="#000000" stroke="#000000" points="594.435,-320.5597 584.1906,-323.2619 593.8842,-327.538 594.435,-320.5597"/>
</g>
<!-- [root] meta.count&#45;boundary (EachMode fixup)&#45;&gt;[root] var.object_id -->
<g id="edge37" class="edge">
<title>[root] meta.count&#45;boundary (EachMode fixup)&#45;&gt;[root] var.object_id</title>
<path fill="none" stroke="#000000" d="M1976.6017,-374.8962C2346.3196,-367.8728 3190.8111,-349.4927 3358.9753,-323.6872"/>
<polygon fill="#000000" stroke="#000000" points="3359.5741,-327.1357 3368.8502,-322.0167 3358.4065,-320.2338 3359.5741,-327.1357"/>
</g>
<!-- [root] meta.count&#45;boundary (EachMode fixup)&#45;&gt;[root] var.tenant_id -->
<g id="edge38" class="edge">
<title>[root] meta.count&#45;boundary (EachMode fixup)&#45;&gt;[root] var.tenant_id</title>
<path fill="none" stroke="#000000" d="M1977.3563,-375.2936C2366.1476,-368.8409 3283.3852,-351.1582 3462.7911,-323.7179"/>
<polygon fill="#000000" stroke="#000000" points="3463.5715,-327.1358 3472.8516,-322.024 3462.4092,-320.233 3463.5715,-327.1358"/>
</g>
<!-- [root] output.object_id (expand) -->
<g id="node25" class="node">
<title>[root] output.object_id (expand)</title>
<ellipse fill="none" stroke="#000000" cx="2961" cy="-306" rx="124.2781" ry="18"/>
<text text-anchor="middle" x="2961" y="-302.3" font-family="Times,serif" font-size="14.00" fill="#000000">[root] output.object_id (expand)</text>
</g>
<!-- [root] meta.count&#45;boundary (EachMode fixup)&#45;&gt;[root] output.object_id (expand) -->
<g id="edge35" class="edge">
<title>[root] meta.count&#45;boundary (EachMode fixup)&#45;&gt;[root] output.object_id (expand)</title>
<path fill="none" stroke="#000000" d="M1973.3414,-373.2937C2176.9842,-366.6816 2527.9409,-352.1611 2828,-324 2839.5994,-322.9114 2851.7414,-321.5613 2863.7714,-320.0936"/>
<polygon fill="#000000" stroke="#000000" points="2864.3471,-323.5489 2873.836,-318.8361 2863.4792,-316.6029 2864.3471,-323.5489"/>
</g>
<!-- [root] output.tenant_id (expand) -->
<g id="node26" class="node">
<title>[root] output.tenant_id (expand)</title>
<ellipse fill="none" stroke="#000000" cx="3227" cy="-306" rx="124.2781" ry="18"/>
<text text-anchor="middle" x="3227" y="-302.3" font-family="Times,serif" font-size="14.00" fill="#000000">[root] output.tenant_id (expand)</text>
</g>
<!-- [root] meta.count&#45;boundary (EachMode fixup)&#45;&gt;[root] output.tenant_id (expand) -->
<g id="edge36" class="edge">
<title>[root] meta.count&#45;boundary (EachMode fixup)&#45;&gt;[root] output.tenant_id (expand)</title>
<path fill="none" stroke="#000000" d="M1977.9539,-375.8207C2226.4855,-371.5572 2695.8281,-359.195 3094,-324 3105.6958,-322.9662 3117.9404,-321.642 3130.0645,-320.1817"/>
<polygon fill="#000000" stroke="#000000" points="3130.7115,-323.6284 3140.2058,-318.9264 3129.8516,-316.6814 3130.7115,-323.6284"/>
</g>
<!-- [root] output.object_id (expand)&#45;&gt;[root] data.azurerm_client_config.current (expand) -->
<g id="edge39" class="edge">
<title>[root] output.object_id (expand)&#45;&gt;[root] data.azurerm_client_config.current (expand)</title>
<path fill="none" stroke="#000000" d="M2910.0687,-289.4817C2878.7274,-279.317 2838.2429,-266.1869 2804.5263,-255.2518"/>
<polygon fill="#000000" stroke="#000000" points="2805.3467,-251.8384 2794.7547,-252.0826 2803.1871,-258.497 2805.3467,-251.8384"/>
</g>
<!-- [root] output.tenant_id (expand)&#45;&gt;[root] data.azurerm_client_config.current (expand) -->
<g id="edge40" class="edge">
<title>[root] output.tenant_id (expand)&#45;&gt;[root] data.azurerm_client_config.current (expand)</title>
<path fill="none" stroke="#000000" d="M3139.7554,-293.1278C3059.5058,-281.2877 2940.0255,-263.6595 2852.4025,-250.7315"/>
<polygon fill="#000000" stroke="#000000" points="2852.8214,-247.2555 2842.4176,-249.2583 2851.7997,-254.1806 2852.8214,-247.2555"/>
</g>
<!-- [root] provider[&quot;registry.terraform.io/hashicorp/azurerm&quot;] (close) -->
<g id="node27" class="node">
<title>[root] provider[&quot;registry.terraform.io/hashicorp/azurerm&quot;] (close)</title>
<ellipse fill="none" stroke="#000000" cx="1367" cy="-378" rx="241.5573" ry="18"/>
<text text-anchor="middle" x="1367" y="-374.3" font-family="Times,serif" font-size="14.00" fill="#000000">[root] provider[&quot;registry.terraform.io/hashicorp/azurerm&quot;] (close)</text>
</g>
<!-- [root] provider[&quot;registry.terraform.io/hashicorp/azurerm&quot;] (close)&#45;&gt;[root] azurerm_network_security_group.nic_ubuntu (expand) -->
<g id="edge41" class="edge">
<title>[root] provider[&quot;registry.terraform.io/hashicorp/azurerm&quot;] (close)&#45;&gt;[root] azurerm_network_security_group.nic_ubuntu (expand)</title>
<path fill="none" stroke="#000000" d="M1539.4719,-365.3697C1565.7741,-363.5194 1592.6067,-361.6748 1618,-360 1880.3088,-342.6995 1949.1665,-348.7138 2214.5982,-324.0961"/>
<polygon fill="#000000" stroke="#000000" points="2215.3044,-327.5455 2224.9358,-323.1311 2214.6537,-320.5758 2215.3044,-327.5455"/>
</g>
<!-- [root] provider[&quot;registry.terraform.io/hashicorp/azurerm&quot;] (close)&#45;&gt;[root] azurerm_network_security_group.nic_windows (expand) -->
<g id="edge42" class="edge">
<title>[root] provider[&quot;registry.terraform.io/hashicorp/azurerm&quot;] (close)&#45;&gt;[root] azurerm_network_security_group.nic_windows (expand)</title>
<path fill="none" stroke="#000000" d="M1536.0593,-365.1291C1563.4428,-363.2594 1591.5002,-361.4723 1618,-360 2023.4678,-337.4733 2126.1743,-356.0592 2531,-324 2532.1185,-323.9114 2533.2415,-323.8208 2534.3686,-323.7283"/>
<polygon fill="#000000" stroke="#000000" points="2534.9456,-327.1916 2544.6081,-322.8459 2534.3446,-320.2175 2534.9456,-327.1916"/>
</g>
<!-- [root] provider[&quot;registry.terraform.io/hashicorp/azurerm&quot;] (close)&#45;&gt;[root] azurerm_network_security_rule.AllowHTTP (expand) -->
<g id="edge43" class="edge">
<title>[root] provider[&quot;registry.terraform.io/hashicorp/azurerm&quot;] (close)&#45;&gt;[root] azurerm_network_security_rule.AllowHTTP (expand)</title>
<path fill="none" stroke="#000000" d="M1525.6258,-364.4035C1640.0664,-354.2454 1798.203,-339.4929 1937,-324 1937.1027,-323.9885 1937.2055,-323.9771 1937.3084,-323.9656"/>
<polygon fill="#000000" stroke="#000000" points="1937.4366,-327.4736 1946.9776,-322.8672 1936.6464,-320.5183 1937.4366,-327.4736"/>
</g>
<!-- [root] provider[&quot;registry.terraform.io/hashicorp/azurerm&quot;] (close)&#45;&gt;[root] azurerm_network_security_rule.AllowHTTPS (expand) -->
<g id="edge44" class="edge">
<title>[root] provider[&quot;registry.terraform.io/hashicorp/azurerm&quot;] (close)&#45;&gt;[root] azurerm_network_security_rule.AllowHTTPS (expand)</title>
<path fill="none" stroke="#000000" d="M1271.3001,-361.4366C1210.0403,-350.8339 1130.2198,-337.0188 1065.5874,-325.8324"/>
<polygon fill="#000000" stroke="#000000" points="1065.8003,-322.3173 1055.3499,-324.0606 1064.6065,-329.2148 1065.8003,-322.3173"/>
</g>
<!-- [root] provider[&quot;registry.terraform.io/hashicorp/azurerm&quot;] (close)&#45;&gt;[root] azurerm_network_security_rule.AllowRDP (expand) -->
<g id="edge45" class="edge">
<title>[root] provider[&quot;registry.terraform.io/hashicorp/azurerm&quot;] (close)&#45;&gt;[root] azurerm_network_security_rule.AllowRDP (expand)</title>
<path fill="none" stroke="#000000" d="M1332.5328,-360.0171C1314.3383,-350.5243 1291.8276,-338.7796 1272.4483,-328.6687"/>
<polygon fill="#000000" stroke="#000000" points="1273.991,-325.5259 1263.5061,-324.0032 1270.753,-331.732 1273.991,-325.5259"/>
</g>
<!-- [root] provider[&quot;registry.terraform.io/hashicorp/azurerm&quot;] (close)&#45;&gt;[root] azurerm_network_security_rule.AllowSQLServer (expand) -->
<g id="edge46" class="edge">
<title>[root] provider[&quot;registry.terraform.io/hashicorp/azurerm&quot;] (close)&#45;&gt;[root] azurerm_network_security_rule.AllowSQLServer (expand)</title>
<path fill="none" stroke="#000000" d="M1403.8315,-360.2022C1423.6497,-350.6256 1448.2941,-338.7169 1469.4311,-328.5031"/>
<polygon fill="#000000" stroke="#000000" points="1471.0762,-331.5954 1478.5573,-324.0931 1468.0306,-325.2927 1471.0762,-331.5954"/>
</g>
<!-- [root] provider[&quot;registry.terraform.io/hashicorp/azurerm&quot;] (close)&#45;&gt;[root] azurerm_network_security_rule.AllowSSH (expand) -->
<g id="edge47" class="edge">
<title>[root] provider[&quot;registry.terraform.io/hashicorp/azurerm&quot;] (close)&#45;&gt;[root] azurerm_network_security_rule.AllowSSH (expand)</title>
<path fill="none" stroke="#000000" d="M1466.4807,-361.572C1531.0392,-350.911 1615.5213,-336.9598 1683.6867,-325.7031"/>
<polygon fill="#000000" stroke="#000000" points="1684.3251,-329.1452 1693.6212,-324.0626 1683.1845,-322.2387 1684.3251,-329.1452"/>
</g>
<!-- [root] provider[&quot;registry.terraform.io/hashicorp/azurerm&quot;] (close)&#45;&gt;[root] azurerm_storage_account.storage (expand) -->
<g id="edge48" class="edge">
<title>[root] provider[&quot;registry.terraform.io/hashicorp/azurerm&quot;] (close)&#45;&gt;[root] azurerm_storage_account.storage (expand)</title>
<path fill="none" stroke="#000000" d="M1200.0151,-364.9614C1091.4467,-355.7429 946.6071,-342.0564 810.0179,-324.2238"/>
<polygon fill="#000000" stroke="#000000" points="810.1508,-320.7112 799.7797,-322.8772 809.2379,-327.6514 810.1508,-320.7112"/>
</g>
<!-- [root] provider[&quot;registry.terraform.io/hashicorp/azurerm&quot;] (close)&#45;&gt;[root] azurerm_subnet.dev (expand) -->
<g id="edge49" class="edge">
<title>[root] provider[&quot;registry.terraform.io/hashicorp/azurerm&quot;] (close)&#45;&gt;[root] azurerm_subnet.dev (expand)</title>
<path fill="none" stroke="#000000" d="M1133.3003,-373.3583C835.9501,-366.4952 337.7896,-351.5395 136.035,-323.9392"/>
<polygon fill="#000000" stroke="#000000" points="136.4644,-320.4652 126.0728,-322.5305 135.4843,-327.3962 136.4644,-320.4652"/>
</g>
<!-- [root] provider[&quot;registry.terraform.io/hashicorp/azurerm&quot;] (close)&#45;&gt;[root] azurerm_subnet.training (expand) -->
<g id="edge50" class="edge">
<title>[root] provider[&quot;registry.terraform.io/hashicorp/azurerm&quot;] (close)&#45;&gt;[root] azurerm_subnet.training (expand)</title>
<path fill="none" stroke="#000000" d="M1144.5602,-370.9106C886.6833,-361.9668 476.1471,-345.3012 303.5738,-323.9071"/>
<polygon fill="#000000" stroke="#000000" points="303.9106,-320.4218 293.547,-322.623 303.0213,-327.3651 303.9106,-320.4218"/>
</g>
<!-- [root] provider[&quot;registry.terraform.io/hashicorp/azurerm&quot;] (close)&#45;&gt;[root] azurerm_virtual_network_gateway.vpnGateway (expand) -->
<g id="edge51" class="edge">
<title>[root] provider[&quot;registry.terraform.io/hashicorp/azurerm&quot;] (close)&#45;&gt;[root] azurerm_virtual_network_gateway.vpnGateway (expand)</title>
<path fill="none" stroke="#000000" d="M1171.9255,-367.3049C1017.8743,-358.1686 797.2224,-343.5567 594.4562,-324.1133"/>
<polygon fill="#000000" stroke="#000000" points="594.4926,-320.6007 584.2027,-323.1245 593.8205,-327.5684 594.4926,-320.6007"/>
</g>
<!-- [root] provider[&quot;registry.terraform.io/hashicorp/azurerm&quot;] (close)&#45;&gt;[root] data.azurerm_client_config.current (expand) -->
<g id="edge52" class="edge">
<title>[root] provider[&quot;registry.terraform.io/hashicorp/azurerm&quot;] (close)&#45;&gt;[root] data.azurerm_client_config.current (expand)</title>
<path fill="none" stroke="#000000" d="M1536.3993,-365.1401C1563.6754,-363.2745 1591.6104,-361.4857 1618,-360 1715.7048,-354.4994 2407.8514,-362.0751 2498,-324 2519.4313,-314.9483 2515.6868,-299.3406 2536,-288 2563.5116,-272.6406 2595.5757,-261.4979 2625.9856,-253.4751"/>
<polygon fill="#000000" stroke="#000000" points="2626.9654,-256.8374 2635.7929,-250.9786 2625.2385,-250.0537 2626.9654,-256.8374"/>
</g>
<!-- [root] root -->
<g id="node28" class="node">
<title>[root] root</title>
<ellipse fill="none" stroke="#000000" cx="1585" cy="-450" rx="47.3916" ry="18"/>
<text text-anchor="middle" x="1585" y="-446.3" font-family="Times,serif" font-size="14.00" fill="#000000">[root] root</text>
</g>
<!-- [root] root&#45;&gt;[root] meta.count&#45;boundary (EachMode fixup) -->
<g id="edge53" class="edge">
<title>[root] root&#45;&gt;[root] meta.count&#45;boundary (EachMode fixup)</title>
<path fill="none" stroke="#000000" d="M1620.9983,-438.1107C1653.5521,-427.3589 1702.1841,-411.297 1740.9893,-398.4806"/>
<polygon fill="#000000" stroke="#000000" points="1742.2297,-401.7569 1750.6276,-395.2973 1740.0344,-395.1101 1742.2297,-401.7569"/>
</g>
<!-- [root] root&#45;&gt;[root] provider[&quot;registry.terraform.io/hashicorp/azurerm&quot;] (close) -->
<g id="edge54" class="edge">
<title>[root] root&#45;&gt;[root] provider[&quot;registry.terraform.io/hashicorp/azurerm&quot;] (close)</title>
<path fill="none" stroke="#000000" d="M1549.0017,-438.1107C1516.6708,-427.4326 1468.4813,-411.5168 1429.8094,-398.7444"/>
<polygon fill="#000000" stroke="#000000" points="1430.7913,-395.3828 1420.1981,-395.57 1428.5959,-402.0296 1430.7913,-395.3828"/>
</g>
</g>
</svg>
